<svg width="35" height="36" viewBox="0 0 35 36" fill="none" xmlns="http://www.w3.org/2000/svg">
<rect x="0.9375" y="1.4375" width="33.125" height="33.125" rx="16.5625" stroke="#6E737A" stroke-width="1.875"/>
<mask id="path-2-inside-1_379_306" fill="white">
<path d="M25.1562 26.6133V24.6992C25.1562 23.6839 24.7529 22.7102 24.035 21.9923C23.3171 21.2744 22.3434 20.8711 21.3281 20.8711H13.6719C12.6566 20.8711 11.6829 21.2744 10.965 21.9923C10.2471 22.7102 9.84375 23.6839 9.84375 24.6992V26.6133"/>
<path d="M17.5 17.043C19.6142 17.043 21.3281 15.3291 21.3281 13.2148C21.3281 11.1006 19.6142 9.38672 17.5 9.38672C15.3858 9.38672 13.6719 11.1006 13.6719 13.2148C13.6719 15.3291 15.3858 17.043 17.5 17.043Z"/>
</mask>
<path d="M23.2812 26.6133C23.2812 27.6488 24.1207 28.4883 25.1562 28.4883C26.1918 28.4883 27.0312 27.6488 27.0312 26.6133H25.1562H23.2812ZM21.3281 20.8711V18.9961V20.8711ZM13.6719 20.8711V18.9961V20.8711ZM9.84375 24.6992H7.96875H9.84375ZM7.96875 26.6133C7.96875 27.6488 8.80822 28.4883 9.84375 28.4883C10.8793 28.4883 11.7188 27.6488 11.7188 26.6133H9.84375H7.96875ZM25.1562 26.6133H27.0312V24.6992H25.1562H23.2812V26.6133H25.1562ZM25.1562 24.6992H27.0312C27.0312 23.1867 26.4304 21.736 25.3608 20.6665L24.035 21.9923L22.7092 23.3182C23.0755 23.6844 23.2812 24.1812 23.2812 24.6992H25.1562ZM24.035 21.9923L25.3608 20.6665C24.2913 19.597 22.8407 18.9961 21.3281 18.9961V20.8711V22.7461C21.8461 22.7461 22.3429 22.9519 22.7092 23.3182L24.035 21.9923ZM21.3281 20.8711V18.9961H13.6719V20.8711V22.7461H21.3281V20.8711ZM13.6719 20.8711V18.9961C12.1593 18.9961 10.7087 19.597 9.63916 20.6665L10.965 21.9923L12.2908 23.3182C12.6571 22.9519 13.1539 22.7461 13.6719 22.7461V20.8711ZM10.965 21.9923L9.63916 20.6665C8.56961 21.736 7.96875 23.1867 7.96875 24.6992H9.84375H11.7188C11.7188 24.1812 11.9245 23.6844 12.2908 23.3182L10.965 21.9923ZM9.84375 24.6992H7.96875V26.6133H9.84375H11.7188V24.6992H9.84375ZM21.3281 13.2148H19.4531C19.4531 14.2935 18.5787 15.168 17.5 15.168V17.043V18.918C20.6497 18.918 23.2031 16.3646 23.2031 13.2148H21.3281ZM17.5 17.043V15.168C16.4213 15.168 15.5469 14.2935 15.5469 13.2148H13.6719H11.7969C11.7969 16.3646 14.3503 18.918 17.5 18.918V17.043ZM13.6719 13.2148H15.5469C15.5469 12.1362 16.4213 11.2617 17.5 11.2617V9.38672V7.51172C14.3503 7.51172 11.7969 10.0651 11.7969 13.2148H13.6719ZM17.5 9.38672V11.2617C18.5787 11.2617 19.4531 12.1362 19.4531 13.2148H21.3281H23.2031C23.2031 10.0651 20.6497 7.51172 17.5 7.51172V9.38672Z" fill="#6E737A" mask="url(#path-2-inside-1_379_306)"/>
</svg>
